<?xml version="1.0" encoding="UTF-8" standalone="no"?>
<!-- Created with Inkscape (http://www.inkscape.org/) -->

<svg
   width="40mm"
   height="40mm"
   viewBox="0 0 40 40"
   version="1.1"
   id="svg5"
   inkscape:version="1.1.1 (3bf5ae0d25, 2021-09-20)"
   sodipodi:docname="knobD.svg"
   xmlns:inkscape="http://www.inkscape.org/namespaces/inkscape"
   xmlns:sodipodi="http://sodipodi.sourceforge.net/DTD/sodipodi-0.dtd"
   xmlns="http://www.w3.org/2000/svg"
   xmlns:svg="http://www.w3.org/2000/svg">
  <sodipodi:namedview
     id="namedview7"
     pagecolor="#ffffff"
     bordercolor="#666666"
     borderopacity="1.0"
     inkscape:pageshadow="2"
     inkscape:pageopacity="0.0"
     inkscape:pagecheckerboard="true"
     inkscape:document-units="mm"
     showgrid="false"
     inkscape:zoom="5.6568543"
     inkscape:cx="87.239298"
     inkscape:cy="44.459338"
     inkscape:window-width="1920"
     inkscape:window-height="1001"
     inkscape:window-x="-9"
     inkscape:window-y="-9"
     inkscape:window-maximized="1"
     inkscape:current-layer="layer1"
     inkscape:object-paths="true"
     inkscape:object-nodes="true"
     inkscape:snap-nodes="true"
     inkscape:snap-bbox="false"
     height="50mm"
     inkscape:snap-intersection-paths="true" />
  <defs
     id="defs2">
    <inkscape:path-effect
       effect="dashed_stroke"
       id="path-effect2478"
       is_visible="true"
       lpeversion="1"
       numberdashes="4"
       holefactor="0"
       splitsegments="true"
       halfextreme="true"
       unifysegment="true"
       message="Add &lt;b&gt;&quot;Fill Between Many LPE&quot;&lt;/b&gt; to add fill." />
    <inkscape:path-effect
       effect="dashed_stroke"
       id="path-effect2476"
       is_visible="true"
       lpeversion="1"
       numberdashes="16"
       holefactor="0"
       splitsegments="true"
       halfextreme="true"
       unifysegment="true"
       message="Add &lt;b&gt;&quot;Fill Between Many LPE&quot;&lt;/b&gt; to add fill." />
    <marker
       style="overflow:visible"
       id="Arrow1Lstart"
       refX="0.0"
       refY="0.0"
       orient="auto"
       inkscape:stockid="Arrow1Lstart"
       inkscape:isstock="true">
      <path
         transform="scale(0.8) translate(12.5,0)"
         style="fill-rule:evenodd;fill:context-stroke;stroke:context-stroke;stroke-width:1.0pt"
         d="M 0.0,0.0 L 5.0,-5.0 L -12.5,0.0 L 5.0,5.0 L 0.0,0.0 z "
         id="path824" />
    </marker>
    <inkscape:path-effect
       effect="fill_between_many"
       method="originald"
       linkedpaths="#path3309,0,1"
       id="path-effect3610" />
  </defs>
  <g
     inkscape:label="Layer 1"
     inkscape:groupmode="layer"
     id="layer1"
     transform="translate(-56.261696,-55.895935)">
    <path
       style="mix-blend-mode:normal;fill:none;stroke:#00000a;stroke-width:1.022;stroke-linecap:butt;stroke-linejoin:round;stroke-miterlimit:4;stroke-dasharray:none;stroke-dashoffset:0.7154;stroke-opacity:1"
       id="path925"
       sodipodi:type="arc"
       sodipodi:cx="76.261696"
       sodipodi:cy="75.895935"
       sodipodi:rx="17.988876"
       sodipodi:ry="17.988876"
       d="m 94.098658,73.547439 c 0.100218,0.768641 0.151914,1.552532 0.151914,2.348496 0,0.79597 -0.0517,1.579865 -0.151916,2.348511 m -1.212989,4.537171 c -0.606455,1.462511 -1.400285,2.827687 -2.351545,4.06558 m -3.321176,3.321173 c -1.237894,0.951259 -2.60307,1.745088 -4.065581,2.351541 m -4.537173,1.212986 c -0.768642,0.100218 -1.552532,0.151914 -2.348496,0.151914 -0.79597,0 -1.579865,-0.0517 -2.348511,-0.151916 m -4.537172,-1.212989 c -1.46251,-0.606454 -2.827686,-1.400285 -4.065579,-2.351545 M 61.989261,86.847185 C 61.038002,85.609291 60.244172,84.244115 59.63772,82.781604 M 58.424734,78.244431 C 58.324516,77.47579 58.27282,76.6919 58.27282,75.895935 c 0,-0.795969 0.0517,-1.579864 0.151916,-2.34851 m 1.212989,-4.537172 c 0.606454,-1.462511 1.400285,-2.827686 2.351545,-4.06558 M 65.310446,61.6235 c 1.237894,-0.951259 2.60307,-1.745088 4.065581,-2.351541 M 73.9132,58.058973 c 0.768641,-0.100218 1.552531,-0.151914 2.348496,-0.151914 0.795969,0 1.579864,0.0517 2.34851,0.151916 m 4.537172,1.212989 c 1.462511,0.606454 2.827686,1.400285 4.06558,2.351545 m 3.321173,3.321176 c 0.951259,1.237894 1.745088,2.60307 2.351541,4.065581 m 1.212986,4.537173 c 0.100218,0.768641 0.151914,1.552532 0.151914,2.348496"
       inkscape:path-effect="#path-effect2478" />
    <path
       id="path1197-4"
       style="fill:none;stroke:#00000a;stroke-width:0.662092;stroke-linecap:butt;stroke-linejoin:miter;stroke-miterlimit:4;stroke-dasharray:none;stroke-dashoffset:0;stroke-opacity:1"
       d="m 78.027601,56.130019 -1.774608,1.774615 -1.757211,1.757224 m 0,-3.531722 3.531819,3.531839"
       sodipodi:nodetypes="ccccc" />
  </g>
</svg>
