<?xml version="1.0" encoding="UTF-8" standalone="no"?>
<!-- Created with Inkscape (http://www.inkscape.org/) -->

<svg
   width="35mm"
   height="35mm"
   viewBox="0 0 35 35"
   version="1.1"
   id="svg5"
   inkscape:version="1.1.1 (3bf5ae0d25, 2021-09-20)"
   sodipodi:docname="knobD.svg"
   xmlns:inkscape="http://www.inkscape.org/namespaces/inkscape"
   xmlns:sodipodi="http://sodipodi.sourceforge.net/DTD/sodipodi-0.dtd"
   xmlns="http://www.w3.org/2000/svg"
   xmlns:svg="http://www.w3.org/2000/svg">
  <sodipodi:namedview
     id="namedview7"
     pagecolor="#ffffff"
     bordercolor="#666666"
     borderopacity="1.0"
     inkscape:pageshadow="2"
     inkscape:pageopacity="0.0"
     inkscape:pagecheckerboard="true"
     inkscape:document-units="mm"
     showgrid="false"
     inkscape:zoom="2.8284271"
     inkscape:cx="35.532116"
     inkscape:cy="96.3433"
     inkscape:window-width="1920"
     inkscape:window-height="1001"
     inkscape:window-x="-9"
     inkscape:window-y="-9"
     inkscape:window-maximized="1"
     inkscape:current-layer="layer1"
     inkscape:object-paths="true"
     inkscape:object-nodes="true"
     inkscape:snap-nodes="true"
     inkscape:snap-bbox="false"
     height="50mm"
     inkscape:snap-intersection-paths="true" />
  <defs
     id="defs2">
    <inkscape:path-effect
       effect="dashed_stroke"
       id="path-effect2478"
       is_visible="true"
       lpeversion="1"
       numberdashes="4"
       holefactor="0"
       splitsegments="true"
       halfextreme="true"
       unifysegment="true"
       message="Add &lt;b&gt;&quot;Fill Between Many LPE&quot;&lt;/b&gt; to add fill." />
    <inkscape:path-effect
       effect="dashed_stroke"
       id="path-effect2476"
       is_visible="true"
       lpeversion="1"
       numberdashes="16"
       holefactor="0"
       splitsegments="true"
       halfextreme="true"
       unifysegment="true"
       message="Add &lt;b&gt;&quot;Fill Between Many LPE&quot;&lt;/b&gt; to add fill." />
    <marker
       style="overflow:visible"
       id="Arrow1Lstart"
       refX="0"
       refY="0"
       orient="auto"
       inkscape:stockid="Arrow1Lstart"
       inkscape:isstock="true">
      <path
         transform="matrix(0.8,0,0,0.8,10,0)"
         style="fill:context-stroke;fill-rule:evenodd;stroke:context-stroke;stroke-width:1pt"
         d="M 0,0 5,-5 -12.5,0 5,5 Z"
         id="path824" />
    </marker>
    <inkscape:path-effect
       effect="fill_between_many"
       method="originald"
       linkedpaths="#path3309,0,1"
       id="path-effect3610"
       is_visible="true"
       lpeversion="0"
       join="true"
       close="true"
       autoreverse="true"
       applied="false" />
  </defs>
  <g
     inkscape:label="Layer 1"
     inkscape:groupmode="layer"
     id="layer1"
     transform="translate(-56.261696,-55.895935)">
    <path
       style="color:#000000;fill:#00000a;stroke-width:0.87501;stroke-linejoin:round;stroke-dashoffset:0.7154;-inkscape-stroke:none"
       d="m 67.565417,58.437677 c -1.31628,0.545817 -2.543429,1.259827 -3.657226,2.115725 l 0.543458,0.709228 c 1.052515,-0.808807 2.214164,-1.484038 3.457275,-1.999512 z m 12.393554,0 -0.343506,0.825441 c 1.243111,0.515475 2.404759,1.190705 3.457275,1.999512 l 0.543457,-0.709228 c -1.113796,-0.855899 -2.340944,-1.569908 -3.657226,-2.115725 z m -19.039794,5.103029 c -0.855897,1.113798 -1.569904,2.342656 -2.115721,3.65894 l 0.825439,0.341794 c 0.515476,-1.24311 1.190705,-2.403049 1.999511,-3.455567 z m 25.686034,0 -0.709229,0.545167 c 0.808805,1.052516 1.484035,2.212457 1.999508,3.455567 l 0.82544,-0.341794 c -0.545811,-1.316284 -1.259825,-2.545142 -2.115719,-3.65894 z m -28.893797,7.741705 c -0.09018,0.691662 -0.136718,1.39818 -0.136718,2.114015 0,0.715829 0.04654,1.420646 0.136718,2.112306 l 0.886964,-0.116212 c -0.0852,-0.653459 -0.129884,-1.318986 -0.129884,-1.996094 0,-0.677111 0.04469,-1.344335 0.129884,-1.997805 z m 32.101558,0 -0.886963,0.11621 c 0.0852,0.653463 0.129885,1.320697 0.129885,1.997805 0,0.677114 -0.04466,1.342628 -0.129885,1.996094 l 0.886963,0.116212 c 0.09018,-0.691662 0.136724,-1.396471 0.136724,-2.112306 0,-0.715827 -0.04655,-1.422355 -0.136724,-2.114015 z m -30.184077,7.96729 -0.825439,0.341797 c 0.545815,1.316283 1.259826,2.54514 2.115721,3.658938 l 0.709229,-0.545167 c -0.808805,-1.052516 -1.484038,-2.212457 -1.999511,-3.455568 z m 28.266595,0 c -0.515473,1.243111 -1.190702,2.403052 -1.999508,3.455568 l 0.709229,0.545167 c 0.855894,-1.113797 1.569901,-2.342657 2.115719,-3.658938 z m -23.443841,6.280521 -0.543458,0.709229 c 1.113796,0.855898 2.340946,1.569909 3.657226,2.115728 l 0.343507,-0.825445 c -1.24311,-0.515481 -2.404761,-1.190705 -3.457275,-1.999512 z m 18.621091,0 c -1.052515,0.808806 -2.214164,1.484038 -3.457275,1.999512 l 0.343506,0.825445 c 1.316282,-0.545819 2.54343,-1.25983 3.657226,-2.115728 z m -11.308348,3.030025 -0.114503,0.886976 c 0.691662,0.09017 1.396472,0.136712 2.112306,0.136712 0.715827,0 1.420645,-0.04655 2.112304,-0.136712 l -0.114502,-0.886976 c -0.653462,0.0852 -1.320695,0.128179 -1.997802,0.128179 -0.677112,0 -1.344336,-0.04298 -1.997803,-0.128179 z"
       id="path925"
       sodipodi:nodetypes="cccccccccccccccccccccccsccccsccscccccccccccccccccccccccsccscc" />
    <path
       id="path4749"
       style="display:inline;opacity:1;stroke-width:0.87501;stroke-linejoin:round;stroke-opacity:0.498039;paint-order:stroke fill markers"
       d="m 73.762174,55.895935 2.055074,1.893183 -2.055074,1.893819 -2.055033,-1.893819 z"
       sodipodi:nodetypes="ccccc" />
  </g>
</svg>
